<svg width="34" height="33" viewBox="0 0 34 33" fill="none" xmlns="http://www.w3.org/2000/svg">
<path fill-rule="evenodd" clip-rule="evenodd" d="M7.84 4.48C8.06663 4.17783 8.42229 4 8.8 4H23.2C23.5777 4 23.9334 4.17783 24.16 4.48L27.76 9.28C27.9158 9.48772 28 9.74036 28 10V26.8C28 27.7548 27.6207 28.6705 26.9456 29.3456C26.2705 30.0207 25.3548 30.4 24.4 30.4H7.6C6.64522 30.4 5.72955 30.0207 5.05442 29.3456C4.37928 28.6705 4 27.7548 4 26.8V10C4 9.74036 4.08421 9.48772 4.24 9.28L7.84 4.48ZM9.4 6.4L6.4 10.4V26.8C6.4 27.1183 6.52643 27.4235 6.75147 27.6485C6.97652 27.8736 7.28174 28 7.6 28H24.4C24.7183 28 25.0235 27.8736 25.2485 27.6485C25.4736 27.4235 25.6 27.1183 25.6 26.8V10.4L22.6 6.4H9.4Z" fill="#1F1F1F"/>
<path fill-rule="evenodd" clip-rule="evenodd" d="M4 10C4 9.33726 4.53726 8.8 5.2 8.8H26.8C27.4627 8.8 28 9.33726 28 10C28 10.6627 27.4627 11.2 26.8 11.2H5.2C4.53726 11.2 4 10.6627 4 10Z" fill="#1F1F1F"/>
<path fill-rule="evenodd" clip-rule="evenodd" d="M11.2 13.6C11.8627 13.6 12.4 14.1373 12.4 14.8C12.4 15.7548 12.7793 16.6705 13.4544 17.3456C14.1295 18.0207 15.0452 18.4 16 18.4C16.9548 18.4 17.8705 18.0207 18.5456 17.3456C19.2207 16.6705 19.6 15.7548 19.6 14.8C19.6 14.1373 20.1373 13.6 20.8 13.6C21.4627 13.6 22 14.1373 22 14.8C22 16.3913 21.3679 17.9174 20.2426 19.0426C19.1174 20.1679 17.5913 20.8 16 20.8C14.4087 20.8 12.8826 20.1679 11.7574 19.0426C10.6321 17.9174 10 16.3913 10 14.8C10 14.1373 10.5373 13.6 11.2 13.6Z" fill="#1F1F1F"/>
<circle cx="28" cy="6" r="6" fill="#959DAD"/>
<path d="M27.928 8.232C28.2587 8.232 28.5093 8.144 28.68 7.968C28.856 7.792 28.944 7.57867 28.944 7.328C28.944 7.024 28.8533 6.8 28.672 6.656C28.4907 6.512 28.2053 6.44 27.816 6.44H27.24V5.888L28.208 4.568L28.664 4.208L28.032 4.28H26.688V3.4H29.744V3.968L28.616 5.48L28.264 5.696V5.736L28.6 5.688C28.7867 5.704 28.9627 5.74667 29.128 5.816C29.2987 5.88533 29.4453 5.98667 29.568 6.12C29.696 6.248 29.7973 6.408 29.872 6.6C29.9467 6.792 29.984 7.01333 29.984 7.264C29.984 7.57867 29.9307 7.85067 29.824 8.08C29.7227 8.30933 29.5787 8.50133 29.392 8.656C29.2107 8.81067 28.9973 8.92533 28.752 9C28.5067 9.07467 28.2427 9.112 27.96 9.112C27.7253 9.112 27.4827 9.09067 27.232 9.048C26.9813 9.00533 26.7787 8.944 26.624 8.864L26.904 8C27.0427 8.06933 27.1947 8.12533 27.36 8.168C27.5307 8.21067 27.72 8.232 27.928 8.232Z" fill="white"/>
</svg>
